<svg xmlns="http://www.w3.org/2000/svg" viewBox="0 0 512 512">
  <!-- Sun/warmth — friendly and bright -->
  <circle cx="256" cy="256" r="240" fill="#FF8F00"/>
  <!-- Sun rays -->
  <g fill="#FFCA28" opacity="0.6">
    <rect x="240" y="8" width="32" height="60" rx="16"/>
    <rect x="240" y="444" width="32" height="60" rx="16"/>
    <rect x="8" y="240" width="60" height="32" rx="16"/>
    <rect x="444" y="240" width="60" height="32" rx="16"/>
    <rect x="80" y="64" width="32" height="60" rx="16" transform="rotate(45 96 94)"/>
    <rect x="400" y="388" width="32" height="60" rx="16" transform="rotate(45 416 418)"/>
    <rect x="400" y="64" width="32" height="60" rx="16" transform="rotate(-45 416 94)"/>
    <rect x="80" y="388" width="32" height="60" rx="16" transform="rotate(-45 96 418)"/>
  </g>
  <circle cx="256" cy="256" r="160" fill="#FFB300"/>
  <text x="256" y="310" text-anchor="middle" font-family="Arial, Helvetica, sans-serif" font-weight="bold" font-size="220" fill="white">P</text>
</svg>
